<svg width="170" height="143" viewBox="0 0 170 143" fill="none" xmlns="http://www.w3.org/2000/svg">
    <path d="M84.952 57.9136V142.851L19.0049 114.367L19.3195 29.7363L84.952 57.9136Z" fill="#418DF9"/>
    <path d="M84.9531 57.9644V142.902L150.58 115.402V30.0073L84.9531 57.9644Z" fill="#A2BDFF"/>
    <path d="M84.952 57.9136L150.899 30.2918L85.47 1.28882L19.0049 29.6013L84.952 57.9136Z" fill="#0E84E5"/>
    <path d="M0.996127 44.7531L67.3633 76.9671C67.5417 77.0537 67.7435 77.0793 67.9379 77.0399C68.1322 77.0006 68.3082 76.8986 68.4389 76.7495L84.9523 57.9134L19.0052 29.6011L0.848427 43.2149C0.724276 43.308 0.626144 43.4315 0.563458 43.5734C0.500773 43.7154 0.47564 43.871 0.490472 44.0255C0.505304 44.18 0.5596 44.328 0.648151 44.4554C0.736703 44.5828 0.856531 44.6854 0.996127 44.7531Z" fill="#699CFF"/>
    <path d="M150.899 30.2917L169.215 46.8505C169.327 46.9515 169.411 47.0788 169.462 47.2209C169.512 47.363 169.526 47.5153 169.502 47.6641C169.478 47.8129 169.418 47.9534 169.326 48.0729C169.234 48.1924 169.114 48.2872 168.977 48.3485L103.428 77.603C103.253 77.6811 103.058 77.7017 102.87 77.6616C102.683 77.6216 102.513 77.5232 102.385 77.3804L84.9521 57.9136L150.899 30.2917Z" fill="#699CFF"/>
    <path d="M85.4697 1.28884L151.083 30.2918L160.519 28.1047C160.704 28.0617 160.871 27.9613 160.997 27.8177C161.122 27.6741 161.198 27.4947 161.216 27.305C161.233 27.1153 161.19 26.9251 161.093 26.7613C160.995 26.5975 160.849 26.4685 160.674 26.3928L100.762 0.432741C100.631 0.37592 100.488 0.350968 100.346 0.359938L85.4697 1.28884Z" fill="#699CFF"/>
    <path d="M85.4702 1.28871L20.2251 29.7363L11.9773 28.3503C11.7863 28.3147 11.6119 28.2185 11.4798 28.0761C11.3477 27.9337 11.2649 27.7526 11.2437 27.5595C11.2225 27.3664 11.264 27.1716 11.362 27.0039C11.4601 26.8362 11.6095 26.7045 11.7882 26.6283L73.1814 0.170107C73.3171 0.112436 73.4648 0.0887388 73.6117 0.101081L85.4702 1.28871Z" fill="#699CFF"/>
</svg>